<svg width="612" height="404" viewBox="0 0 612 404" fill="none" xmlns="http://www.w3.org/2000/svg">
<path d="M231 36H202V262L231 199V36Z" fill="#EDE0D4"/>
<path d="M294 86H331L233 302H190L294 86Z" fill="#C4C4C4"/>
<path d="M294 86H331L233 302H190L294 86Z" fill="#EDE0D4"/>
<path d="M357 86H394L296 302H253L357 86Z" fill="#C4C4C4"/>
<path d="M357 86H394L296 302H253L357 86Z" fill="#EDE0D4"/>
<path d="M381 107L394.414 85L424 154H394.414L381 107Z" fill="#DDB892"/>
<path d="M371.983 161.847L386.335 161.792C390.783 161.775 394.113 162.371 396.326 163.579C398.57 164.754 399.698 166.766 399.709 169.614C399.725 173.998 397.095 176.632 391.818 177.516L391.819 177.612C398.222 178.387 401.432 181.159 401.45 185.927C401.464 189.415 400.161 191.868 397.542 193.286C394.923 194.672 391.15 195.374 386.222 195.393L372.11 195.446L372.107 194.534L375.227 194.523L375.106 162.747L371.986 162.759L371.983 161.847ZM384.526 178.407L384.587 194.487L386.843 194.479C388.603 194.472 389.832 193.859 390.532 192.641C391.231 191.422 391.576 189.629 391.567 187.261L391.558 184.717C391.55 182.605 391.112 181.022 390.244 179.97C389.376 178.917 387.838 178.395 385.63 178.403L384.526 178.407ZM384.466 162.711L384.522 177.495L385.77 177.491C387.434 177.484 388.584 176.984 389.221 175.989C389.889 174.963 390.219 173.41 390.211 171.33L390.202 169.074C390.194 166.706 389.899 165.059 389.32 164.133C388.74 163.175 387.634 162.699 386.002 162.706L384.466 162.711ZM418.422 178.279L415.878 178.289L415.939 194.369L419.059 194.357L419.062 195.269L403.463 195.328L403.459 194.416L406.579 194.404L406.459 162.628L403.339 162.64L403.335 161.728L417.831 161.673C421.991 161.657 424.936 161.87 426.666 162.312C428.427 162.721 429.661 163.228 430.368 163.834C431.908 165.076 432.684 167.057 432.694 169.777C432.704 172.497 432.04 174.451 430.7 175.641C429.361 176.798 427.315 177.493 424.564 177.728L424.565 177.872C427.158 178.214 428.969 178.975 429.997 180.155C431.026 181.335 431.545 183.317 431.556 186.101L431.565 188.645C431.572 190.309 431.656 191.429 431.818 192.004C432.012 192.58 432.397 192.866 432.973 192.864C433.549 192.862 433.996 192.604 434.315 192.091C434.664 191.546 434.98 190.424 435.262 188.727L436.078 188.82C435.736 191.542 435.119 193.368 434.227 194.299C433.366 195.231 431.624 195.701 429 195.711C426.376 195.721 424.502 195.12 423.377 193.908C422.285 192.664 421.732 190.347 421.719 186.955L421.706 183.451C421.699 181.659 421.454 180.348 420.971 179.517C420.52 178.687 419.67 178.274 418.422 178.279ZM415.819 162.593L415.875 177.377L417.411 177.371C419.235 177.364 420.577 176.799 421.436 175.676C422.328 174.552 422.769 172.727 422.76 170.199L422.754 168.807C422.745 166.279 422.306 164.616 421.439 163.819C420.604 162.991 419.259 162.58 417.403 162.587L415.819 162.593ZM452.781 178.149L450.237 178.159L450.298 194.238L453.418 194.227L453.422 195.139L437.822 195.198L437.818 194.286L440.938 194.274L440.818 162.498L437.698 162.51L437.695 161.598L452.19 161.543C456.35 161.527 459.295 161.74 461.025 162.182C462.786 162.591 464.02 163.098 464.727 163.704C466.267 164.946 467.043 166.927 467.053 169.647C467.064 172.367 466.399 174.321 465.059 175.51C463.72 176.668 461.674 177.363 458.923 177.598L458.924 177.742C461.517 178.084 463.328 178.845 464.356 180.025C465.385 181.205 465.904 183.187 465.915 185.971L465.925 188.515C465.931 190.179 466.015 191.299 466.177 191.874C466.372 192.45 466.757 192.736 467.333 192.734C467.909 192.732 468.356 192.474 468.674 191.961C469.024 191.416 469.339 190.294 469.621 188.597L470.437 188.69C470.096 191.412 469.479 193.238 468.586 194.169C467.726 195.101 465.983 195.571 463.359 195.581C460.735 195.591 458.861 194.99 457.736 193.778C456.644 192.534 456.091 190.217 456.078 186.825L456.065 183.321C456.058 181.529 455.813 180.218 455.33 179.387C454.879 178.557 454.029 178.144 452.781 178.149ZM450.178 162.463L450.234 177.247L451.77 177.241C453.594 177.234 454.936 176.669 455.795 175.546C456.687 174.422 457.128 172.596 457.119 170.069L457.113 168.677C457.104 166.149 456.666 164.486 455.799 163.689C454.963 162.861 453.618 162.45 451.762 162.457L450.178 162.463Z" fill="#9C6644"/>
<path d="M360.648 232V198.4H378.888C380.584 198.4 382.072 198.784 383.352 199.552C384.632 200.288 385.64 201.296 386.376 202.576C387.112 203.856 387.48 205.312 387.48 206.944C387.48 208.064 387.24 209.152 386.76 210.208C386.312 211.232 385.672 212.128 384.84 212.896C384.008 213.664 383.016 214.24 381.864 214.624C383.176 214.944 384.312 215.52 385.272 216.352C386.232 217.184 386.984 218.176 387.528 219.328C388.104 220.48 388.392 221.728 388.392 223.072C388.392 224.736 388.008 226.24 387.24 227.584C386.472 228.928 385.4 230 384.024 230.8C382.68 231.6 381.064 232 379.176 232H360.648ZM365.256 227.92H378.12C379.304 227.92 380.312 227.664 381.144 227.152C381.976 226.608 382.616 225.92 383.064 225.088C383.544 224.224 383.784 223.312 383.784 222.352C383.784 221.36 383.544 220.464 383.064 219.664C382.584 218.832 381.912 218.16 381.048 217.648C380.184 217.104 379.16 216.832 377.976 216.832H365.256V227.92ZM365.256 212.944H377.304C378.424 212.944 379.4 212.704 380.232 212.224C381.096 211.712 381.752 211.056 382.2 210.256C382.68 209.424 382.92 208.56 382.92 207.664C382.92 206.736 382.696 205.888 382.248 205.12C381.8 204.32 381.176 203.68 380.376 203.2C379.576 202.72 378.648 202.48 377.592 202.48H365.256V212.944ZM393.926 232V207.52H398.39V232H393.926ZM396.182 203.632C395.382 203.632 394.678 203.344 394.07 202.768C393.494 202.16 393.206 201.456 393.206 200.656C393.206 199.856 393.494 199.168 394.07 198.592C394.678 197.984 395.382 197.68 396.182 197.68C396.982 197.68 397.67 197.984 398.246 198.592C398.854 199.168 399.158 199.856 399.158 200.656C399.158 201.456 398.854 202.16 398.246 202.768C397.67 203.344 396.982 203.632 396.182 203.632ZM417.795 232C415.107 232 412.723 231.504 410.643 230.512C408.563 229.488 406.931 228.064 405.747 226.24C404.595 224.384 404.019 222.224 404.019 219.76C404.019 217.328 404.515 215.152 405.507 213.232C406.499 211.28 407.875 209.744 409.635 208.624C411.395 207.504 413.443 206.944 415.779 206.944C418.307 206.944 420.403 207.488 422.067 208.576C423.763 209.664 425.027 211.136 425.859 212.992C426.691 214.816 427.107 216.864 427.107 219.136C427.107 219.488 427.091 219.856 427.059 220.24C427.059 220.624 427.027 220.96 426.963 221.248H408.723C408.883 222.752 409.379 224.032 410.211 225.088C411.043 226.112 412.099 226.896 413.379 227.44C414.691 227.952 416.131 228.208 417.699 228.208H424.083V232H417.795ZM408.675 218.128H422.643C422.643 217.52 422.579 216.88 422.451 216.208C422.323 215.504 422.099 214.832 421.779 214.192C421.459 213.52 421.027 212.928 420.483 212.416C419.971 211.872 419.315 211.44 418.515 211.12C417.747 210.8 416.835 210.64 415.779 210.64C414.659 210.64 413.667 210.864 412.803 211.312C411.971 211.728 411.251 212.304 410.643 213.04C410.035 213.744 409.571 214.544 409.251 215.44C408.931 216.336 408.739 217.232 408.675 218.128ZM432.738 232V217.84C432.738 215.664 433.218 213.76 434.178 212.128C435.17 210.496 436.53 209.232 438.258 208.336C439.986 207.408 441.954 206.944 444.162 206.944C446.402 206.944 448.37 207.408 450.066 208.336C451.794 209.232 453.138 210.496 454.098 212.128C455.09 213.76 455.586 215.664 455.586 217.84V232H451.17V217.888C451.17 216.416 450.834 215.152 450.162 214.096C449.522 213.008 448.658 212.176 447.57 211.6C446.514 211.024 445.378 210.736 444.162 210.736C442.946 210.736 441.794 211.024 440.706 211.6C439.65 212.176 438.786 213.008 438.114 214.096C437.474 215.152 437.154 216.416 437.154 217.888V232H432.738ZM475.03 232C472.342 232 469.958 231.504 467.878 230.512C465.798 229.488 464.166 228.064 462.982 226.24C461.83 224.384 461.254 222.224 461.254 219.76C461.254 217.328 461.75 215.152 462.742 213.232C463.734 211.28 465.11 209.744 466.87 208.624C468.63 207.504 470.678 206.944 473.014 206.944C475.542 206.944 477.638 207.488 479.302 208.576C480.998 209.664 482.262 211.136 483.094 212.992C483.926 214.816 484.342 216.864 484.342 219.136C484.342 219.488 484.326 219.856 484.294 220.24C484.294 220.624 484.262 220.96 484.198 221.248H465.958C466.118 222.752 466.614 224.032 467.446 225.088C468.278 226.112 469.334 226.896 470.614 227.44C471.926 227.952 473.366 228.208 474.934 228.208H481.318V232H475.03ZM465.91 218.128H479.878C479.878 217.52 479.814 216.88 479.686 216.208C479.558 215.504 479.334 214.832 479.014 214.192C478.694 213.52 478.262 212.928 477.718 212.416C477.206 211.872 476.55 211.44 475.75 211.12C474.982 210.8 474.07 210.64 473.014 210.64C471.894 210.64 470.902 210.864 470.038 211.312C469.206 211.728 468.486 212.304 467.878 213.04C467.27 213.744 466.806 214.544 466.486 215.44C466.166 216.336 465.974 217.232 465.91 218.128ZM489.637 232V228.208H501.349C502.117 228.208 502.773 228.048 503.317 227.728C503.893 227.376 504.325 226.928 504.613 226.384C504.901 225.84 505.045 225.264 505.045 224.656C505.045 224.08 504.917 223.552 504.661 223.072C504.405 222.56 504.005 222.16 503.461 221.872C502.949 221.552 502.325 221.392 501.589 221.392H496.645C495.077 221.392 493.701 221.136 492.517 220.624C491.365 220.08 490.453 219.296 489.781 218.272C489.141 217.248 488.821 216 488.821 214.528C488.821 213.28 489.125 212.128 489.733 211.072C490.341 210.016 491.189 209.168 492.277 208.528C493.365 207.856 494.613 207.52 496.021 207.52H507.301V211.312H496.453C495.461 211.312 494.677 211.616 494.101 212.224C493.525 212.832 493.237 213.552 493.237 214.384C493.237 215.184 493.525 215.888 494.101 216.496C494.709 217.072 495.557 217.36 496.645 217.36H501.349C503.109 217.36 504.581 217.648 505.765 218.224C506.981 218.768 507.893 219.568 508.501 220.624C509.141 221.68 509.461 222.976 509.461 224.512C509.461 225.824 509.141 227.056 508.501 228.208C507.861 229.328 506.965 230.24 505.813 230.944C504.693 231.648 503.381 232 501.877 232H489.637ZM360.648 267V233.4H375.384C377.496 233.4 379.416 233.864 381.144 234.792C382.872 235.688 384.248 236.968 385.272 238.632C386.296 240.264 386.808 242.184 386.808 244.392C386.808 246.632 386.232 248.616 385.08 250.344C383.96 252.04 382.44 253.304 380.52 254.136L384.12 261.432C384.376 261.944 384.648 262.328 384.936 262.584C385.256 262.808 385.704 262.92 386.28 262.92H388.68V267H385.56C384.312 267 383.208 266.68 382.248 266.04C381.32 265.4 380.552 264.536 379.944 263.448L375.912 255.24C375.592 255.272 375.24 255.304 374.856 255.336C374.504 255.336 374.136 255.336 373.752 255.336H365.256V267H360.648ZM365.256 251.256H374.76C376.136 251.256 377.384 250.984 378.504 250.44C379.656 249.896 380.552 249.112 381.192 248.088C381.864 247.064 382.2 245.832 382.2 244.392C382.2 242.92 381.864 241.672 381.192 240.648C380.52 239.624 379.624 238.84 378.504 238.296C377.384 237.752 376.152 237.48 374.808 237.48H365.256V251.256ZM402.274 267.576C399.906 267.576 397.858 267.016 396.13 265.896C394.402 264.744 393.074 263.192 392.146 261.24C391.218 259.288 390.754 257.128 390.754 254.76C390.754 252.36 391.266 250.2 392.29 248.28C393.314 246.328 394.786 244.792 396.706 243.672C398.626 242.52 400.93 241.944 403.618 241.944C406.21 241.944 408.434 242.504 410.29 243.624C412.146 244.744 413.57 246.264 414.562 248.184C415.586 250.104 416.098 252.248 416.098 254.616V267H411.634V262.008H411.538C411.058 262.936 410.402 263.832 409.57 264.696C408.77 265.528 407.762 266.216 406.546 266.76C405.33 267.304 403.906 267.576 402.274 267.576ZM403.426 263.784C405.026 263.784 406.434 263.4 407.65 262.632C408.898 261.832 409.858 260.744 410.53 259.368C411.234 257.96 411.586 256.392 411.586 254.664C411.586 252.968 411.25 251.448 410.578 250.104C409.938 248.76 409.01 247.704 407.794 246.936C406.578 246.136 405.154 245.736 403.522 245.736C401.794 245.736 400.306 246.136 399.058 246.936C397.842 247.736 396.898 248.824 396.226 250.2C395.586 251.544 395.266 253.08 395.266 254.808C395.266 256.472 395.586 257.992 396.226 259.368C396.866 260.712 397.794 261.784 399.01 262.584C400.226 263.384 401.698 263.784 403.426 263.784ZM423.129 267V242.52H427.593V267H423.129ZM425.385 238.632C424.585 238.632 423.881 238.344 423.273 237.768C422.697 237.16 422.409 236.456 422.409 235.656C422.409 234.856 422.697 234.168 423.273 233.592C423.881 232.984 424.585 232.68 425.385 232.68C426.185 232.68 426.873 232.984 427.449 233.592C428.057 234.168 428.361 234.856 428.361 235.656C428.361 236.456 428.057 237.16 427.449 237.768C426.873 238.344 426.185 238.632 425.385 238.632ZM446.423 267C443.895 267 441.639 266.456 439.655 265.368C437.671 264.28 436.103 262.824 434.951 261C433.799 259.144 433.223 257.064 433.223 254.76C433.223 252.456 433.799 250.392 434.951 248.568C436.103 246.712 437.671 245.24 439.655 244.152C441.639 243.064 443.895 242.52 446.423 242.52H449.303V246.312H446.279C444.647 246.312 443.175 246.696 441.863 247.464C440.583 248.2 439.559 249.208 438.791 250.488C438.055 251.768 437.687 253.192 437.687 254.76C437.687 256.328 438.055 257.752 438.791 259.032C439.559 260.312 440.583 261.336 441.863 262.104C443.175 262.84 444.647 263.208 446.279 263.208H449.303V267H446.423ZM466.78 267C464.092 267 461.708 266.504 459.628 265.512C457.548 264.488 455.916 263.064 454.732 261.24C453.58 259.384 453.004 257.224 453.004 254.76C453.004 252.328 453.5 250.152 454.492 248.232C455.484 246.28 456.86 244.744 458.62 243.624C460.38 242.504 462.428 241.944 464.764 241.944C467.292 241.944 469.388 242.488 471.052 243.576C472.748 244.664 474.012 246.136 474.844 247.992C475.676 249.816 476.092 251.864 476.092 254.136C476.092 254.488 476.076 254.856 476.044 255.24C476.044 255.624 476.012 255.96 475.948 256.248H457.708C457.868 257.752 458.364 259.032 459.196 260.088C460.028 261.112 461.084 261.896 462.364 262.44C463.676 262.952 465.116 263.208 466.684 263.208H473.068V267H466.78ZM457.66 253.128H471.628C471.628 252.52 471.564 251.88 471.436 251.208C471.308 250.504 471.084 249.832 470.764 249.192C470.444 248.52 470.012 247.928 469.468 247.416C468.956 246.872 468.3 246.44 467.5 246.12C466.732 245.8 465.82 245.64 464.764 245.64C463.644 245.64 462.652 245.864 461.788 246.312C460.956 246.728 460.236 247.304 459.628 248.04C459.02 248.744 458.556 249.544 458.236 250.44C457.916 251.336 457.724 252.232 457.66 253.128ZM481.387 267V263.208H493.099C493.867 263.208 494.523 263.048 495.067 262.728C495.643 262.376 496.075 261.928 496.363 261.384C496.651 260.84 496.795 260.264 496.795 259.656C496.795 259.08 496.667 258.552 496.411 258.072C496.155 257.56 495.755 257.16 495.211 256.872C494.699 256.552 494.075 256.392 493.339 256.392H488.395C486.827 256.392 485.451 256.136 484.267 255.624C483.115 255.08 482.203 254.296 481.531 253.272C480.891 252.248 480.571 251 480.571 249.528C480.571 248.28 480.875 247.128 481.483 246.072C482.091 245.016 482.939 244.168 484.027 243.528C485.115 242.856 486.363 242.52 487.771 242.52H499.051V246.312H488.203C487.211 246.312 486.427 246.616 485.851 247.224C485.275 247.832 484.987 248.552 484.987 249.384C484.987 250.184 485.275 250.888 485.851 251.496C486.459 252.072 487.307 252.36 488.395 252.36H493.099C494.859 252.36 496.331 252.648 497.515 253.224C498.731 253.768 499.643 254.568 500.251 255.624C500.891 256.68 501.211 257.976 501.211 259.512C501.211 260.824 500.891 262.056 500.251 263.208C499.611 264.328 498.715 265.24 497.563 265.944C496.443 266.648 495.131 267 493.627 267H481.387ZM360.648 302V268.4H375.384C377.496 268.4 379.416 268.864 381.144 269.792C382.872 270.688 384.248 271.968 385.272 273.632C386.296 275.264 386.808 277.184 386.808 279.392C386.808 281.632 386.232 283.616 385.08 285.344C383.96 287.04 382.44 288.304 380.52 289.136L384.12 296.432C384.376 296.944 384.648 297.328 384.936 297.584C385.256 297.808 385.704 297.92 386.28 297.92H388.68V302H385.56C384.312 302 383.208 301.68 382.248 301.04C381.32 300.4 380.552 299.536 379.944 298.448L375.912 290.24C375.592 290.272 375.24 290.304 374.856 290.336C374.504 290.336 374.136 290.336 373.752 290.336H365.256V302H360.648ZM365.256 286.256H374.76C376.136 286.256 377.384 285.984 378.504 285.44C379.656 284.896 380.552 284.112 381.192 283.088C381.864 282.064 382.2 280.832 382.2 279.392C382.2 277.92 381.864 276.672 381.192 275.648C380.52 274.624 379.624 273.84 378.504 273.296C377.384 272.752 376.152 272.48 374.808 272.48H365.256V286.256ZM402.274 302.576C399.906 302.576 397.858 302.016 396.13 300.896C394.402 299.744 393.074 298.192 392.146 296.24C391.218 294.288 390.754 292.128 390.754 289.76C390.754 287.36 391.266 285.2 392.29 283.28C393.314 281.328 394.786 279.792 396.706 278.672C398.626 277.52 400.93 276.944 403.618 276.944C406.21 276.944 408.434 277.504 410.29 278.624C412.146 279.744 413.57 281.264 414.562 283.184C415.586 285.104 416.098 287.248 416.098 289.616V302H411.634V297.008H411.538C411.058 297.936 410.402 298.832 409.57 299.696C408.77 300.528 407.762 301.216 406.546 301.76C405.33 302.304 403.906 302.576 402.274 302.576ZM403.426 298.784C405.026 298.784 406.434 298.4 407.65 297.632C408.898 296.832 409.858 295.744 410.53 294.368C411.234 292.96 411.586 291.392 411.586 289.664C411.586 287.968 411.25 286.448 410.578 285.104C409.938 283.76 409.01 282.704 407.794 281.936C406.578 281.136 405.154 280.736 403.522 280.736C401.794 280.736 400.306 281.136 399.058 281.936C397.842 282.736 396.898 283.824 396.226 285.2C395.586 286.544 395.266 288.08 395.266 289.808C395.266 291.472 395.586 292.992 396.226 294.368C396.866 295.712 397.794 296.784 399.01 297.584C400.226 298.384 401.698 298.784 403.426 298.784ZM423.129 302V287.84C423.129 285.664 423.609 283.76 424.569 282.128C425.561 280.496 426.921 279.232 428.649 278.336C430.377 277.408 432.345 276.944 434.553 276.944C436.793 276.944 438.761 277.408 440.457 278.336C442.185 279.232 443.529 280.496 444.489 282.128C445.481 283.76 445.977 285.664 445.977 287.84V302H441.561V287.888C441.561 286.416 441.225 285.152 440.553 284.096C439.913 283.008 439.049 282.176 437.961 281.6C436.905 281.024 435.769 280.736 434.553 280.736C433.337 280.736 432.185 281.024 431.097 281.6C430.041 282.176 429.177 283.008 428.505 284.096C427.865 285.152 427.545 286.416 427.545 287.888V302H423.129ZM464.268 302.576C462.412 302.576 460.716 302.288 459.18 301.712C457.644 301.104 456.316 300.224 455.196 299.072C454.076 297.92 453.196 296.544 452.556 294.944C451.948 293.312 451.644 291.488 451.644 289.472C451.644 286.912 452.156 284.704 453.18 282.848C454.236 280.96 455.66 279.504 457.452 278.48C459.276 277.456 461.308 276.944 463.548 276.944C464.796 276.944 465.98 277.152 467.1 277.568C468.252 277.984 469.276 278.56 470.172 279.296C471.068 280.032 471.772 280.896 472.284 281.888H472.38V266.96H476.796V289.616C476.796 292.336 476.236 294.672 475.116 296.624C474.028 298.544 472.54 300.016 470.652 301.04C468.796 302.064 466.668 302.576 464.268 302.576ZM464.268 298.784C465.772 298.784 467.132 298.416 468.348 297.68C469.564 296.944 470.524 295.904 471.228 294.56C471.964 293.216 472.332 291.632 472.332 289.808C472.332 287.952 471.964 286.352 471.228 285.008C470.524 283.632 469.564 282.576 468.348 281.84C467.132 281.104 465.756 280.736 464.22 280.736C462.716 280.736 461.34 281.12 460.092 281.888C458.876 282.656 457.9 283.712 457.164 285.056C456.46 286.4 456.108 287.968 456.108 289.76C456.108 291.616 456.476 293.216 457.212 294.56C457.948 295.904 458.924 296.944 460.14 297.68C461.388 298.416 462.764 298.784 464.268 298.784ZM493.821 302.576C491.453 302.576 489.405 302.016 487.677 300.896C485.949 299.744 484.621 298.192 483.693 296.24C482.765 294.288 482.301 292.128 482.301 289.76C482.301 287.36 482.813 285.2 483.837 283.28C484.861 281.328 486.333 279.792 488.253 278.672C490.173 277.52 492.477 276.944 495.165 276.944C497.757 276.944 499.981 277.504 501.837 278.624C503.693 279.744 505.117 281.264 506.109 283.184C507.133 285.104 507.645 287.248 507.645 289.616V302H503.181V297.008H503.085C502.605 297.936 501.949 298.832 501.117 299.696C500.317 300.528 499.309 301.216 498.093 301.76C496.877 302.304 495.453 302.576 493.821 302.576ZM494.973 298.784C496.573 298.784 497.981 298.4 499.197 297.632C500.445 296.832 501.405 295.744 502.077 294.368C502.781 292.96 503.133 291.392 503.133 289.664C503.133 287.968 502.797 286.448 502.125 285.104C501.485 283.76 500.557 282.704 499.341 281.936C498.125 281.136 496.701 280.736 495.069 280.736C493.341 280.736 491.853 281.136 490.605 281.936C489.389 282.736 488.445 283.824 487.773 285.2C487.133 286.544 486.813 288.08 486.813 289.808C486.813 291.472 487.133 292.992 487.773 294.368C488.413 295.712 489.341 296.784 490.557 297.584C491.773 298.384 493.245 298.784 494.973 298.784ZM514.676 302V266.96H519.092V302H514.676ZM526.113 302V266.96H530.529V302H526.113Z" fill="#FAE1DD"/>
</svg>
